<svg xmlns="http://www.w3.org/2000/svg" viewBox="0 0 512 512">
  <defs>
    <linearGradient id="bg" x1="0%" y1="0%" x2="100%" y2="100%">
      <stop offset="0%" stop-color="#f4e8d0" />
      <stop offset="100%" stop-color="#d68536" />
    </linearGradient>
    <linearGradient id="glass" x1="0%" y1="0%" x2="100%" y2="100%">
      <stop offset="0%" stop-color="#fff8ed" stop-opacity="0.95" />
      <stop offset="100%" stop-color="#f3dec1" stop-opacity="0.8" />
    </linearGradient>
  </defs>
  <rect width="512" height="512" rx="120" fill="url(#bg)" />
  <rect x="74" y="86" width="364" height="340" rx="38" fill="#2b2118" opacity="0.14" />
  <rect x="68" y="76" width="364" height="340" rx="38" fill="url(#glass)" />
  <rect x="96" y="112" width="138" height="268" rx="26" fill="#fffaf3" stroke="#d8c7ad" stroke-width="10" />
  <rect x="250" y="112" width="154" height="268" rx="26" fill="#fffaf3" stroke="#d8c7ad" stroke-width="10" />
  <rect x="116" y="148" width="98" height="16" rx="8" fill="#d07c32" />
  <rect x="116" y="186" width="82" height="14" rx="7" fill="#c6baa7" />
  <rect x="116" y="216" width="90" height="14" rx="7" fill="#c6baa7" />
  <rect x="116" y="246" width="74" height="14" rx="7" fill="#c6baa7" />
  <rect x="116" y="286" width="90" height="36" rx="18" fill="#2a8a5c" />
  <circle cx="198" cy="304" r="10" fill="#fff9ef" />
  <path d="M281 166h92" stroke="#d07c32" stroke-width="16" stroke-linecap="round" />
  <path d="M281 206h74" stroke="#c6baa7" stroke-width="14" stroke-linecap="round" />
  <path d="M281 236h88" stroke="#c6baa7" stroke-width="14" stroke-linecap="round" />
  <path d="M281 276h48" stroke="#c6baa7" stroke-width="14" stroke-linecap="round" />
  <path d="M279 330c26-38 49-50 80-50 12 0 24 2 36 7-16 31-38 53-68 69-26 14-53 21-81 21 2-18 13-34 33-47z" fill="#c97b28" />
  <circle cx="359" cy="328" r="16" fill="#fff4de" />
</svg>
